{
  "accessors": [
    {
      "bufferView": 2,
      "componentType": 5126,
      "count": 213,
      "max": [
        -0.1309206485748291,
        0.6632619500160217,
        0.7563402652740479
      ],
      "min": [
        -1.5037727355957031,
        -0.6632623672485352,
        -0.6435115337371826
      ],
      "type": "VEC3"
    },
    {
      "bufferView": 2,
      "byteOffset": 2556,
      "componentType": 5126,
      "count": 213,
      "max": [
        0.9855698943138123,
        0.9807853102684021,
        0.97935950756073
      ],
      "min": [
        -0.9855698943138123,
        -0.9807853102684021,
        -0.97935950756073
      ],
      "type": "VEC3"
    },
    {
      "bufferView": 1,
      "componentType": 5126,
      "count": 213,
      "max": [
        0.9605880379676819,
        0.824749767780304
      ],
      "min": [
        0.004855921026319265,
        0.04580222815275192
      ],
      "type": "VEC2"
    },
    {
      "bufferView": 0,
      "componentType": 5125,
      "count": 309,
      "type": "SCALAR"
    },
    {
      "bufferView": 2,
      "byteOffset": 5112,
      "componentType": 5126,
      "count": 563,
      "max": [
        1.8980484008789063,
        0.9999999403953552,
        2.902100086212158
      ],
      "min": [
        -1.1954338550567627,
        -1.0000001192092896,
        -0.249334454536438
      ],
      "type": "VEC3"
    },
    {
      "bufferView": 2,
      "byteOffset": 11868,
      "componentType": 5126,
      "count": 563,
      "max": [
        0.9229989647865295,
        0.9702223539352417,
        0.9309313297271729
      ],
      "min": [
        -0.9137927293777466,
        -0.9702224135398865,
        -0.9379991292953491
      ],
      "type": "VEC3"
    },
    {
      "bufferView": 1,
      "byteOffset": 1704,
      "componentType": 5126,
      "count": 563,
      "max": [
        0.9951441287994385,
        0.9944450855255127
      ],
      "min": [
        0.004855921026319265,
        0.005554975010454655
      ],
      "type": "VEC2"
    },
    {
      "bufferView": 0,
      "byteOffset": 1236,
      "componentType": 5125,
      "count": 897,
      "type": "SCALAR"
    },
    {
      "bufferView": 2,
      "byteOffset": 18624,
      "componentType": 5126,
      "count": 16,
      "max": [
        -0.19394180178642273,
        0.5769273042678833,
        0.6973317861557007
      ],
      "min": [
        -1.0362141132354736,
        -0.5769277215003967,
        -0.09131187200546265
      ],
      "type": "VEC3"
    },
    {
      "bufferView": 2,
      "byteOffset": 18816,
      "componentType": 5126,
      "count": 16,
      "max": [
        -0.6834858655929565,
        -6.580524569699264e-08,
        -0.7299637794494629
      ],
      "min": [
        -0.6834858655929565,
        -6.580524569699264e-08,
        -0.7299637794494629
      ],
      "type": "VEC3"
    },
    {
      "bufferView": 1,
      "byteOffset": 6208,
      "componentType": 5126,
      "count": 16,
      "max": [
        0.9605880379676819,
        0.2867043912410736
      ],
      "min": [
        0.7501025795936584,
        0.04580222815275192
      ],
      "type": "VEC2"
    },
    {
      "bufferView": 0,
      "byteOffset": 4824,
      "componentType": 5125,
      "count": 42,
      "type": "SCALAR"
    }
  ],
  "asset": {
    "extras": {
      "author": "negar (https://sketchfab.com/negar)",
      "license": "CC-BY-4.0 (http://creativecommons.org/licenses/by/4.0/)",
      "source": "https://sketchfab.com/3d-models/meat-lowpoly-2fb447a8b82e4bff8675c44d7be2f84f",
      "title": "Meat- lowpoly"
    },
    "generator": "Sketchfab-12.65.0",
    "version": "2.0"
  },
  "bufferViews": [
    {
      "buffer": 0,
      "byteLength": 4992,
      "name": "floatBufferViews",
      "target": 34963
    },
    {
      "buffer": 0,
      "byteLength": 6336,
      "byteOffset": 4992,
      "byteStride": 8,
      "name": "floatBufferViews",
      "target": 34962
    },
    {
      "buffer": 0,
      "byteLength": 19008,
      "byteOffset": 11328,
      "byteStride": 12,
      "name": "floatBufferViews",
      "target": 34962
    }
  ],
  "buffers": [
    {
      "byteLength": 30336,
      "uri": "scene.bin"
    }
  ],
  "materials": [
    {
      "doubleSided": true,
      "name": "White",
      "pbrMetallicRoughness": {
        "metallicFactor": 0.0
      }
    },
    {
      "doubleSided": true,
      "name": "meat",
      "pbrMetallicRoughness": {
        "baseColorFactor": [
          1.0,
          0.242392,
          0.0798918,
          1.0
        ],
        "metallicFactor": 0.0
      }
    },
    {
      "doubleSided": true,
      "name": "meat_Dark",
      "pbrMetallicRoughness": {
        "baseColorFactor": [
          0.482978,
          0.104586,
          0.0359555,
          1.0
        ],
        "metallicFactor": 0.0,
        "roughnessFactor": 0.9558903193702559
      }
    }
  ],
  "meshes": [
    {
      "name": "meat_White_0",
      "primitives": [
        {
          "attributes": {
            "NORMAL": 1,
            "POSITION": 0,
            "TEXCOORD_0": 2
          },
          "indices": 3,
          "material": 0,
          "mode": 4
        }
      ]
    },
    {
      "name": "meat_meat_0",
      "primitives": [
        {
          "attributes": {
            "NORMAL": 5,
            "POSITION": 4,
            "TEXCOORD_0": 6
          },
          "indices": 7,
          "material": 1,
          "mode": 4
        }
      ]
    },
    {
      "name": "meat_meat Dark_0",
      "primitives": [
        {
          "attributes": {
            "NORMAL": 9,
            "POSITION": 8,
            "TEXCOORD_0": 10
          },
          "indices": 11,
          "material": 2,
          "mode": 4
        }
      ]
    }
  ],
  "nodes": [
    {
      "children": [
        1
      ],
      "matrix": [
        1.0,
        0.0,
        0.0,
        0.0,
        0.0,
        2.220446049250313e-16,
        -1.0,
        0.0,
        0.0,
        1.0,
        2.220446049250313e-16,
        0.0,
        0.0,
        0.0,
        0.0,
        1.0
      ],
      "name": "Sketchfab_model"
    },
    {
      "children": [
        2
      ],
      "matrix": [
        1.0,
        0.0,
        0.0,
        0.0,
        0.0,
        0.0,
        1.0,
        0.0,
        0.0,
        -1.0,
        0.0,
        0.0,
        0.0,
        0.0,
        0.0,
        1.0
      ],
      "name": "7061ee6d868048bb8cf9dfc6c3688a96.fbx"
    },
    {
      "children": [
        3
      ],
      "name": "RootNode"
    },
    {
      "children": [
        4,
        5,
        6
      ],
      "matrix": [
        85.3306655883789,
        0.0,
        0.0,
        0.0,
        0.0,
        -1.3902130010615861e-05,
        -85.33066558837778,
        0.0,
        0.0,
        85.33066558837778,
        -1.3902130010615861e-05,
        0.0,
        41.779327392578125,
        0.0,
        0.0,
        1.0
      ],
      "name": "meat"
    },
    {
      "mesh": 0,
      "name": "meat_White_0"
    },
    {
      "mesh": 1,
      "name": "meat_meat_0"
    },
    {
      "mesh": 2,
      "name": "meat_meat Dark_0"
    }
  ],
  "scene": 0,
  "scenes": [
    {
      "name": "Sketchfab_Scene",
      "nodes": [
        0
      ]
    }
  ]
}
